<?xml version="1.0" encoding="utf-8"?>
<!-- Generator: Adobe Illustrator 23.0.2, SVG Export Plug-In . SVG Version: 6.00 Build 0)  -->
<svg version="1.1" id="Слой_1" xmlns="http://www.w3.org/2000/svg" xmlns:xlink="http://www.w3.org/1999/xlink" x="0px" y="0px"
	 viewBox="0 0 512 512" style="enable-background:new 0 0 512 512;" xml:space="preserve">
<style type="text/css">
	.st0{fill:#FFFFFF;}
</style>
<path class="st0" d="M348.1,164.1c-3.4-3.4-8-5.2-12.5-5.2s-9,1.7-12.5,5.2c-6.9,6.9-6.9,18.1,0,24.9s18.1,6.9,24.9,0
	S355,170.9,348.1,164.1z"/>
<path class="st0" d="M381.6,26.9c-22.2,8.9-46.2,21.2-69,37.7l-182.9,44.7c-5.4,1.3-9.7,5.4-11.2,10.8c-1.5,5.4,0,11.1,3.9,15
	l68.6,68.6c-4.4,8.2-8.1,16.1-10.8,23.6l103.2,103.2c7.5-2.8,15.4-6.4,23.6-10.8l66.2,66.2c2.9,2.9,6.9,4.5,10.9,4.5
	c1.4,0,2.8-0.2,4.1-0.6c5.4-1.5,9.5-5.8,10.8-11.2l42.7-174.7c18.8-24.5,32.4-50.7,42.1-74.8L381.6,26.9z M369.9,210.8
	c-9.4,9.4-21.8,14.2-34.2,14.2c-12.4,0-24.8-4.7-34.2-14.2c-18.9-18.9-18.9-49.6,0-68.5c18.9-18.9,49.6-18.9,68.5,0
	C388.7,161.2,388.7,191.9,369.9,210.8z"/>
<path class="st0" d="M495.1,96.9c0.6-2,1.2-4,1.8-6c11.9-41.8,13.7-73.4,13.7-74.7c0.2-4.4-1.4-8.6-4.5-11.7
	c-3.1-3.1-7.3-4.7-11.7-4.5c-1.3,0.1-32.9,1.8-74.7,13.8c-2,0.6-4,1.1-6,1.8L495.1,96.9z"/>
<path class="st0" d="M161.7,252.4l-28.9,12.3c-4.7,2-8.1,6.2-9.1,11.2c-1,5,0.6,10.2,4.2,13.8l93.1,93.1c2.9,2.9,6.8,4.5,10.9,4.5
	c1,0,2-0.1,2.9-0.3c5-1,9.2-4.4,11.2-9.1l12.3-28.9L161.7,252.4z"/>
<path class="st0" d="M151,362c-6-6-15.8-6-21.8,0L5.5,485.7c-6,6-6,15.8,0,21.8c3,3,6.9,4.5,10.9,4.5s7.9-1.5,10.9-4.5L151,383.8
	C157,377.8,157,368,151,362z"/>
<path class="st0" d="M22.4,415.8c3.9,0,7.9-1.5,10.9-4.5l72.6-72.6c6-6,6-15.8,0-21.8s-15.8-6-21.8,0l-72.6,72.6c-6,6-6,15.8,0,21.8
	C14.5,414.3,18.5,415.8,22.4,415.8z"/>
<path class="st0" d="M174.3,407.1l-72.6,72.6c-6,6-6,15.8,0,21.8c3,3,6.9,4.5,10.9,4.5s7.9-1.5,10.9-4.5l72.6-72.6
	c6-6,6-15.8,0-21.8C190.1,401.1,180.3,401.1,174.3,407.1z"/>
</svg>
